M48
;Layer_Color=9474304
;FILE_FORMAT=4:4
METRIC,LZ
;TYPE=PLATED
T1F00S00C1.2000
;TYPE=NON_PLATED
T2F00S00C2.2000
%
T01
X01076Y000534
X011014
X011268
X011522
X011776
X01203
X0080155
X0077615
X0075075
X0072535
X0069995
X0067455
X0064915
X0062375
X0059835
X0057295
X0054755
Y002566
X0057295
X0059835
X0062375
X0064915
X0067455
X0069995
X0072535
X0075075
X0077615
X0080155
X0052215
X0049675
X0047135
Y000534
X0049675
X0052215
X003577Y0006
X003323
T02
X01376Y000534
Y002734
X001
Y000534
M30
