M48
;Layer_Color=9474304
;FILE_FORMAT=2:4
INCH,TZ
;TYPE=PLATED
T1F00S00C0.0472
;TYPE=NON_PLATED
T2F00S00C0.0866
%
T01
X42362Y2102
X43362
X44362
X45362
X46362
X47362
X31557
X30557
X29557
X28557
X27557
X26557
X25557
X24557
X23557
X22557
X21557
Y10102
X22557
X23557
X24557
X25557
X26557
X27557
X28557
X29557
X30557
X31557
X20557
X19557
X18557
Y2102
X19557
X20557
X14083Y2362
X13083
T02
X54173Y2102
Y10764
X3937
Y2102
M30
