G04*
G04 #@! TF.GenerationSoftware,Altium Limited,Altium Designer,23.4.1 (23)*
G04*
G04 Layer_Physical_Order=2*
G04 Layer_Color=16711680*
%FSLAX44Y44*%
%MOMM*%
G71*
G04*
G04 #@! TF.SameCoordinates,0266721A-F09C-40F5-B950-D6AAD28562CE*
G04*
G04*
G04 #@! TF.FilePolarity,Positive*
G04*
G01*
G75*
%ADD14C,1.5240*%
%ADD15R,1.8000X1.8000*%
%ADD16C,1.8000*%
D14*
X1376000Y273400D02*
D03*
X100000Y53400D02*
D03*
Y273400D02*
D03*
X1376000Y53400D02*
D03*
D15*
X471350D02*
D03*
D16*
X801550Y256600D02*
D03*
X776150D02*
D03*
X750750D02*
D03*
X725350D02*
D03*
X699950D02*
D03*
X623750D02*
D03*
X598350D02*
D03*
X572950D02*
D03*
X547550D02*
D03*
X522150D02*
D03*
X496750D02*
D03*
X471350D02*
D03*
X649150D02*
D03*
X674550D02*
D03*
X801550Y53400D02*
D03*
X776150D02*
D03*
X750750D02*
D03*
X725350D02*
D03*
X699950D02*
D03*
X623750D02*
D03*
X598350D02*
D03*
X572950D02*
D03*
X547550D02*
D03*
X522150D02*
D03*
X496750D02*
D03*
X649150D02*
D03*
X674550D02*
D03*
X332300Y60000D02*
D03*
X357700D02*
D03*
X1203000Y53400D02*
D03*
X1177600D02*
D03*
X1152200D02*
D03*
X1126800D02*
D03*
X1101400D02*
D03*
X1076000D02*
D03*
M02*
