%TF.GenerationSoftware,Altium Limited,Altium Designer,23.4.1 (23)*%
G04 Layer_Color=0*
%FSLAX44Y44*%
%MOMM*%
%TF.SameCoordinates,691261D2-1884-439D-B531-122D69197680*%
%TF.FilePolarity,Positive*%
%TF.FileFunction,Plated,1,2,PTH,Drill*%
%TF.Part,Single*%
G01*
G75*
%TA.AperFunction,ComponentDrill*%
%ADD23C,1.2000*%
%ADD24C,1.2000*%
D23*
X471350Y53400D02*
D03*
X801550Y256600D02*
D03*
X776150D02*
D03*
X750750D02*
D03*
X725350D02*
D03*
X699950D02*
D03*
X623750D02*
D03*
X598350D02*
D03*
X572950D02*
D03*
X547550D02*
D03*
X522150D02*
D03*
X496750D02*
D03*
X471350D02*
D03*
X649150D02*
D03*
X674550D02*
D03*
X801550Y53400D02*
D03*
X776150D02*
D03*
X750750D02*
D03*
X725350D02*
D03*
X699950D02*
D03*
X623750D02*
D03*
X598350D02*
D03*
X572950D02*
D03*
X547550D02*
D03*
X522150D02*
D03*
X496750D02*
D03*
X649150D02*
D03*
X674550D02*
D03*
X332300Y60000D02*
D03*
X357700D02*
D03*
D24*
X1203000Y53400D02*
D03*
X1177600D02*
D03*
X1152200D02*
D03*
X1126800D02*
D03*
X1101400D02*
D03*
X1076000D02*
D03*
%TF.MD5,21c475cdc45db3365c115b8c2117f4dc*%
M02*
