%TF.GenerationSoftware,Altium Limited,Altium Designer,23.4.1 (23)*%
G04 Layer_Color=16711935*
%FSLAX44Y44*%
%MOMM*%
%TF.SameCoordinates,691261D2-1884-439D-B531-122D69197680*%
%TF.FilePolarity,Negative*%
%TF.FileFunction,Soldermask,Bot*%
%TF.Part,Single*%
G01*
G75*
%TA.AperFunction,WasherPad*%
%ADD15C,1.7272*%
%TA.AperFunction,ComponentPad*%
%ADD16R,2.0032X2.0032*%
%ADD17C,2.0032*%
D15*
X1376000Y273400D02*
D03*
X100000Y53400D02*
D03*
Y273400D02*
D03*
X1376000Y53400D02*
D03*
D16*
X471350D02*
D03*
D17*
X801550Y256600D02*
D03*
X776150D02*
D03*
X750750D02*
D03*
X725350D02*
D03*
X699950D02*
D03*
X623750D02*
D03*
X598350D02*
D03*
X572950D02*
D03*
X547550D02*
D03*
X522150D02*
D03*
X496750D02*
D03*
X471350D02*
D03*
X649150D02*
D03*
X674550D02*
D03*
X801550Y53400D02*
D03*
X776150D02*
D03*
X750750D02*
D03*
X725350D02*
D03*
X699950D02*
D03*
X623750D02*
D03*
X598350D02*
D03*
X572950D02*
D03*
X547550D02*
D03*
X522150D02*
D03*
X496750D02*
D03*
X649150D02*
D03*
X674550D02*
D03*
X332300Y60000D02*
D03*
X357700D02*
D03*
X1203000Y53400D02*
D03*
X1177600D02*
D03*
X1152200D02*
D03*
X1126800D02*
D03*
X1101400D02*
D03*
X1076000D02*
D03*
%TF.MD5,45374ccc9c926d62f93af52f0d64a7a2*%
M02*
